<svg xmlns="http://www.w3.org/2000/svg" xmlns:xlink="http://www.w3.org/1999/xlink" width="800" zoomAndPan="magnify" viewBox="0 0 600 599.999999" height="800" preserveAspectRatio="xMidYMid meet" version="1.0"><defs><clipPath id="f382b14ca7"><path d="M 60 89.898438 L 238.5 89.898438 L 238.5 329.898438 L 60 329.898438 Z M 60 89.898438 " clip-rule="nonzero"/></clipPath><clipPath id="f893b7b0a0"><path d="M 361.5 251.546875 L 540 251.546875 L 540 491.546875 L 361.5 491.546875 Z M 361.5 251.546875 " clip-rule="nonzero"/></clipPath></defs><path fill="#ea5092" d="M 151.394531 392.414062 C 160.199219 413.800781 180.75 423.925781 193.886719 430.398438 C 245.667969 455.910156 324.300781 452.972656 380.878906 406.535156 C 394.121094 395.671875 459.378906 338.738281 444.128906 261.582031 C 430.652344 193.375 363.03125 153.765625 306.101562 148.472656 C 258.9375 144.085938 197.355469 161.257812 175.613281 202.851562 C 161.941406 229.003906 178.394531 237.324219 167.234375 296.597656 C 157.578125 347.898438 140.625 366.257812 151.394531 392.414062 " fill-opacity="1" fill-rule="nonzero"/><path fill="#f4f6ff" d="M 349.21875 245.398438 C 349.21875 298.125 306.886719 340.863281 254.664062 340.863281 C 202.441406 340.863281 160.109375 298.125 160.109375 245.398438 C 160.109375 192.675781 202.441406 149.9375 254.664062 149.9375 C 306.886719 149.9375 349.21875 192.675781 349.21875 245.398438 " fill-opacity="1" fill-rule="nonzero"/><path fill="#ea5092" d="M 236.492188 158.476562 C 236.105469 159.050781 237.257812 160.988281 239.554688 160.988281 C 241.851562 160.988281 243 160.601562 243.957031 163.113281 C 244.914062 165.628906 243.574219 174.128906 244.914062 177.222656 C 246.253906 180.3125 248.550781 182.246094 250.273438 180.507812 C 251.996094 178.765625 251.804688 174.128906 253.910156 172.96875 C 256.015625 171.8125 263.671875 167.171875 264.054688 163.308594 C 264.4375 159.441406 261.757812 156.542969 255.058594 155.773438 C 248.359375 154.996094 239.363281 154.226562 236.492188 158.476562 " fill-opacity="1" fill-rule="nonzero"/><path fill="#7d78a3" d="M 205.785156 244.203125 C 204.785156 244.707031 204.1875 245.671875 204.234375 246.707031 C 204.386719 249.949219 203.027344 258.023438 200.167969 260.605469 C 196.53125 263.890625 197.871094 269.808594 197.816406 272.199219 C 197.699219 277.050781 198.21875 279.210938 203.996094 281.53125 C 209.773438 283.847656 212.039062 283.980469 212.464844 288.617188 C 212.894531 293.257812 213.558594 311.171875 215.269531 315.808594 C 216.984375 320.449219 220.621094 327.984375 222.546875 329.722656 C 224.472656 331.460938 228.96875 332.429688 226.183594 325.859375 C 223.402344 319.289062 221.691406 316.195312 224.902344 312.523438 C 228.113281 308.851562 233.460938 300.351562 233.890625 297.066406 C 234.316406 293.78125 236.242188 291.847656 237.957031 291.460938 C 239.667969 291.074219 243.304688 289.914062 244.375 288.753906 C 245.445312 287.597656 243.304688 284.3125 242.664062 281.414062 C 242.019531 278.511719 242.019531 276.777344 247.371094 274.457031 C 252.722656 272.136719 250.152344 265.566406 242.878906 263.828125 C 235.601562 262.085938 231.109375 258.417969 231.964844 254.746094 C 232.820312 251.074219 227.042969 251.460938 223.617188 249.722656 C 220.195312 247.980469 220.296875 245.25 216.484375 243.949219 C 211.335938 242.1875 207.71875 243.226562 205.785156 244.203125 " fill-opacity="1" fill-rule="nonzero"/><path fill="#7d78a3" d="M 323.507812 240.148438 C 321.894531 237.707031 322.09375 233.839844 326.128906 228.546875 C 329.292969 224.386719 324.75 220.230469 322.652344 218.640625 C 322.269531 218.347656 322.445312 217.742188 322.921875 217.6875 C 325.519531 217.390625 331.542969 218.269531 334.191406 231.804688 C 337.617188 249.308594 339.03125 243.199219 340.847656 241.164062 C 342.660156 239.132812 339.265625 235.328125 342.660156 231.398438 C 344.800781 228.917969 345.886719 225.300781 346.4375 222.351562 C 339.621094 194.585938 320.769531 171.617188 295.789062 159.414062 C 295.828125 162.460938 295.097656 173.082031 282.78125 168.703125 C 282.78125 168.703125 275.121094 165.039062 276.933594 179.898438 C 278.75 194.757812 285 178.878906 286.210938 178.269531 C 287.417969 177.660156 290.644531 176.84375 289.234375 186.816406 C 289.234375 186.816406 289.03125 190.277344 282.78125 189.667969 C 276.53125 189.058594 275.320312 192.109375 275.320312 193.738281 C 275.320312 195.367188 275.925781 199.644531 272.5 202.695312 C 269.074219 205.75 270.078125 213.6875 274.71875 211.039062 C 279.355469 208.394531 282.578125 200.050781 286.8125 199.234375 C 291.046875 198.421875 294.878906 203.917969 298.910156 202.492188 C 302.945312 201.066406 301.128906 194.144531 303.144531 194.144531 C 305.160156 194.144531 309.394531 198.21875 308.789062 201.269531 C 308.183594 204.324219 301.933594 205.75 303.546875 209.410156 C 305.160156 213.078125 308.585938 211.855469 309.59375 214.296875 C 310.605469 216.742188 304.554688 219.589844 299.714844 216.539062 C 294.878906 213.484375 294.074219 217.960938 291.652344 215.925781 C 289.234375 213.890625 289.03125 209.617188 285.605469 211.039062 C 282.175781 212.464844 280.160156 215.316406 275.722656 217.351562 C 271.289062 219.386719 267.660156 222.03125 267.660156 224.882812 C 267.660156 227.730469 269.273438 230.785156 268.46875 235.265625 C 267.660156 239.742188 266.25 251.957031 280.765625 249.511719 C 295.28125 247.070312 293.46875 254.601562 293.46875 255.414062 C 293.46875 256.230469 293.265625 266.8125 294.675781 268.648438 C 296.085938 270.476562 299.3125 275.769531 294.675781 282.691406 C 290.039062 289.613281 291.855469 305.082031 296.085938 303.046875 C 300.320312 301.011719 304.554688 293.070312 309.796875 289 C 315.039062 284.929688 322.296875 267.222656 319.273438 261.726562 C 316.25 256.230469 323.507812 251.753906 324.511719 248.085938 C 325.523438 244.421875 325.121094 242.589844 323.507812 240.148438 " fill-opacity="1" fill-rule="nonzero"/><path fill="#7d78a3" d="M 186.960938 178.507812 C 187.046875 181.898438 186.742188 186.429688 184.570312 189.890625 C 178.019531 200.324219 178.230469 205.542969 177.597656 215.976562 C 176.964844 226.410156 191.382812 244.808594 194.972656 246.738281 C 198.566406 248.671875 199.117188 244.074219 199.117188 240.40625 C 199.117188 236.734375 197.585938 232.328125 195.472656 228.078125 C 193.359375 223.828125 193.359375 221.121094 193.992188 219.382812 C 194.625 217.640625 197.164062 217.0625 198.851562 218.800781 C 200.542969 220.539062 204.605469 222.082031 206.558594 220.996094 C 208.957031 219.660156 208.023438 214.429688 208.867188 212.691406 C 209.714844 210.953125 214.363281 209.792969 216.261719 206.121094 C 218.164062 202.449219 221.335938 200.902344 225.136719 199.164062 C 228.941406 197.425781 232.320312 196.652344 232.957031 195.492188 C 233.589844 194.332031 232.746094 191.628906 233.800781 188.535156 C 234.855469 185.445312 237.394531 181.773438 236.335938 180.226562 C 235.28125 178.679688 232.109375 176.167969 226.195312 180.035156 C 220.277344 183.898438 218.800781 183.898438 217.109375 181 C 215.417969 178.101562 219.011719 170.566406 226.40625 170.566406 C 233.800781 170.566406 235.28125 168.246094 235.492188 166.507812 C 235.703125 164.769531 233.378906 162.835938 230.84375 162.449219 C 228.308594 162.0625 227.886719 163.414062 217.320312 167.28125 C 210.269531 169.859375 203.71875 168.410156 200.371094 167.726562 C 195.570312 170.96875 191.082031 174.578125 186.960938 178.507812 " fill-opacity="1" fill-rule="nonzero"/><path fill="#7d78a3" d="M 344.761719 262.597656 C 343.332031 262.277344 343.652344 265.804688 341.746094 266.445312 C 339.839844 267.085938 339.046875 268.046875 339.523438 271.574219 C 340 275.097656 339.207031 279.746094 337.300781 281.507812 C 335.394531 283.269531 332.699219 284.554688 332.539062 288.882812 C 332.378906 293.207031 328.410156 297.375 326.03125 298.816406 C 323.652344 300.257812 320 302.503906 320 306.1875 C 320 308.5625 319.9375 311.59375 320.484375 313.929688 C 333.085938 301.589844 342.289062 285.742188 346.558594 267.949219 C 346.1875 265.582031 345.578125 262.78125 344.761719 262.597656 " fill-opacity="1" fill-rule="nonzero"/><path fill="#f1b2ac" d="M 224.230469 344.441406 C 224.179688 344.441406 224.125 344.433594 224.074219 344.414062 C 215.894531 341.90625 208.019531 338.398438 200.664062 333.984375 C 200.40625 333.828125 200.324219 333.496094 200.476562 333.242188 C 200.632812 332.984375 200.964844 332.902344 201.21875 333.054688 C 208.5 337.425781 216.296875 340.898438 224.390625 343.382812 C 224.675781 343.46875 224.835938 343.773438 224.75 344.058594 C 224.675781 344.289062 224.464844 344.441406 224.230469 344.441406 " fill-opacity="1" fill-rule="nonzero"/><path fill="#f1b2ac" d="M 255.28125 349.074219 C 250.519531 349.074219 245.726562 348.753906 241.042969 348.128906 C 240.746094 348.089844 240.539062 347.816406 240.578125 347.519531 C 240.617188 347.222656 240.890625 347.015625 241.1875 347.058594 C 245.824219 347.679688 250.566406 347.992188 255.28125 347.992188 C 269.515625 347.992188 283.324219 345.199219 296.320312 339.683594 C 296.597656 339.566406 296.910156 339.695312 297.03125 339.972656 C 297.144531 340.246094 297.019531 340.5625 296.742188 340.679688 C 283.609375 346.25 269.660156 349.074219 255.28125 349.074219 " fill-opacity="1" fill-rule="nonzero"/><path fill="#f1b2ac" d="M 254.664062 341.40625 C 234.839844 341.40625 215.84375 335.308594 199.726562 323.773438 C 199.484375 323.597656 199.429688 323.261719 199.601562 323.019531 C 199.777344 322.777344 200.113281 322.722656 200.355469 322.894531 C 216.289062 334.296875 235.066406 340.324219 254.664062 340.324219 C 270.386719 340.324219 285.941406 336.328125 299.648438 328.773438 C 299.910156 328.628906 300.238281 328.722656 300.382812 328.984375 C 300.527344 329.246094 300.433594 329.574219 300.171875 329.71875 C 286.304688 337.363281 270.566406 341.40625 254.664062 341.40625 " fill-opacity="1" fill-rule="nonzero"/><path fill="#f1b2ac" d="M 160.445312 254.035156 C 160.164062 254.035156 159.929688 253.820312 159.90625 253.539062 C 159.683594 250.851562 159.570312 248.113281 159.570312 245.398438 C 159.570312 219.753906 169.460938 195.648438 187.417969 177.515625 C 205.382812 159.378906 229.261719 149.394531 254.664062 149.394531 C 277.136719 149.394531 298.941406 157.453125 316.066406 172.085938 C 332.992188 186.550781 344.4375 206.585938 348.289062 228.5 C 348.34375 228.792969 348.144531 229.074219 347.851562 229.125 C 347.5625 229.175781 347.277344 228.980469 347.226562 228.6875 C 339.253906 183.367188 300.328125 150.476562 254.664062 150.476562 C 202.824219 150.476562 160.648438 193.058594 160.648438 245.398438 C 160.648438 248.082031 160.761719 250.789062 160.984375 253.449219 C 161.007812 253.75 160.785156 254.007812 160.488281 254.03125 C 160.472656 254.035156 160.460938 254.035156 160.445312 254.035156 " fill-opacity="1" fill-rule="nonzero"/><path fill="#f1b2ac" d="M 231.671875 239.058594 C 231.671875 228.355469 224.109375 219.679688 214.78125 219.679688 C 206.832031 219.679688 200.164062 225.988281 198.371094 234.484375 C 198.167969 234.476562 197.960938 234.472656 197.757812 234.472656 C 184.277344 234.472656 173.351562 246.425781 173.351562 261.167969 C 173.351562 262.160156 173.402344 263.140625 173.5 264.101562 C 164.683594 266.058594 158.054688 274.5 158.054688 284.617188 C 158.054688 287.066406 158.445312 289.417969 159.15625 291.601562 C 152.726562 295.710938 148.414062 303.28125 148.414062 311.945312 C 148.414062 320.15625 152.285156 327.382812 158.164062 331.613281 C 152.285156 335.84375 148.414062 343.074219 148.414062 351.285156 C 148.414062 363.726562 157.316406 373.921875 168.605469 374.828125 C 168.558594 375.398438 168.53125 375.976562 168.53125 376.558594 C 168.53125 387.140625 176.460938 395.71875 186.242188 395.71875 C 188.3125 395.71875 190.296875 395.332031 192.144531 394.625 C 193.050781 404.65625 201.535156 412.523438 211.867188 412.523438 C 222.804688 412.523438 231.671875 403.710938 231.671875 392.84375 C 231.671875 392.726562 231.667969 392.613281 231.667969 392.496094 L 231.671875 392.496094 L 231.671875 240.53125 L 231.617188 240.53125 C 231.648438 240.042969 231.671875 239.554688 231.671875 239.058594 " fill-opacity="1" fill-rule="nonzero"/><path fill="#1e015b" d="M 192.144531 394.082031 C 192.246094 394.082031 192.34375 394.109375 192.429688 394.164062 C 192.574219 394.253906 192.667969 394.40625 192.683594 394.574219 C 193.578125 404.5 201.824219 411.980469 211.867188 411.980469 C 222.488281 411.980469 231.132812 403.398438 231.132812 392.84375 C 231.132812 392.75 231.128906 392.660156 231.128906 392.566406 L 231.128906 392.503906 C 231.128906 392.476562 231.128906 392.453125 231.132812 392.425781 L 231.132812 240.761719 C 231.09375 240.679688 231.074219 240.585938 231.078125 240.492188 C 231.117188 239.945312 231.132812 239.492188 231.132812 239.058594 C 231.132812 228.671875 223.796875 220.21875 214.785156 220.21875 C 207.21875 220.21875 200.6875 226.128906 198.902344 234.59375 C 198.847656 234.847656 198.621094 235.027344 198.359375 235.019531 C 198.160156 235.015625 197.957031 235.011719 197.757812 235.011719 C 184.597656 235.011719 173.894531 246.746094 173.894531 261.167969 C 173.894531 262.117188 173.941406 263.085938 174.039062 264.046875 C 174.066406 264.320312 173.886719 264.570312 173.617188 264.628906 C 164.910156 266.558594 158.59375 274.964844 158.59375 284.613281 C 158.59375 286.949219 158.957031 289.246094 159.671875 291.433594 C 159.75 291.667969 159.65625 291.925781 159.449219 292.054688 C 152.976562 296.191406 148.953125 303.8125 148.953125 311.945312 C 148.953125 319.691406 152.515625 326.878906 158.480469 331.175781 C 158.621094 331.277344 158.703125 331.4375 158.703125 331.613281 C 158.703125 331.785156 158.621094 331.949219 158.480469 332.050781 C 152.515625 336.34375 148.953125 343.535156 148.953125 351.28125 C 148.953125 363.296875 157.605469 373.40625 168.648438 374.285156 C 168.792969 374.296875 168.925781 374.367188 169.019531 374.476562 C 169.113281 374.585938 169.15625 374.726562 169.144531 374.871094 C 169.097656 375.46875 169.074219 376.019531 169.074219 376.558594 C 169.074219 386.824219 176.773438 395.175781 186.242188 395.175781 C 188.195312 395.175781 190.113281 394.820312 191.953125 394.117188 C 192.015625 394.09375 192.078125 394.082031 192.144531 394.082031 Z M 211.867188 413.0625 C 206.753906 413.0625 201.867188 411.171875 198.105469 407.734375 C 194.539062 404.476562 192.273438 400.105469 191.679688 395.363281 C 189.921875 395.957031 188.09375 396.257812 186.242188 396.257812 C 176.179688 396.257812 167.992188 387.421875 167.992188 376.558594 C 167.992188 376.152344 168.003906 375.742188 168.03125 375.316406 C 156.683594 374.109375 147.875 363.664062 147.875 351.28125 C 147.875 343.445312 151.371094 336.148438 157.257812 331.613281 C 151.371094 327.074219 147.875 319.78125 147.875 311.945312 C 147.875 303.59375 151.941406 295.75 158.519531 291.371094 C 157.851562 289.195312 157.511719 286.925781 157.511719 284.613281 C 157.511719 274.636719 163.964844 265.914062 172.917969 263.683594 C 172.847656 262.84375 172.8125 262 172.8125 261.167969 C 172.8125 246.148438 184.003906 233.929688 197.757812 233.929688 C 197.816406 233.929688 197.878906 233.933594 197.941406 233.933594 C 199.964844 225.199219 206.835938 219.140625 214.785156 219.140625 C 224.394531 219.140625 232.214844 228.074219 232.214844 239.058594 C 232.214844 239.449219 232.199219 239.855469 232.171875 240.324219 C 232.199219 240.386719 232.214844 240.457031 232.214844 240.527344 L 232.214844 392.496094 C 232.214844 392.515625 232.210938 392.535156 232.210938 392.554688 C 232.210938 392.652344 232.214844 392.746094 232.214844 392.84375 C 232.214844 403.992188 223.085938 413.0625 211.867188 413.0625 " fill-opacity="1" fill-rule="nonzero"/><path fill="#1e015b" d="M 173.179688 350.179688 C 172.601562 350.179688 172.023438 350.15625 171.445312 350.105469 C 171.148438 350.082031 170.929688 349.820312 170.953125 349.523438 C 170.980469 349.226562 171.238281 349.003906 171.539062 349.03125 C 180.179688 349.761719 188.8125 344.648438 193.011719 336.304688 C 193.148438 336.039062 193.472656 335.933594 193.738281 336.066406 C 194.007812 336.203125 194.113281 336.527344 193.980469 336.792969 C 189.863281 344.96875 181.660156 350.179688 173.179688 350.179688 " fill-opacity="1" fill-rule="nonzero"/><path fill="#1e015b" d="M 180.820312 374.484375 C 180.734375 374.484375 180.652344 374.464844 180.574219 374.425781 C 180.308594 374.289062 180.203125 373.964844 180.339844 373.699219 C 180.894531 372.613281 181.375 371.472656 181.769531 370.308594 C 184.253906 362.96875 183.183594 355.015625 178.910156 349.027344 C 178.738281 348.785156 178.792969 348.445312 179.039062 348.273438 C 179.28125 348.097656 179.617188 348.15625 179.792969 348.398438 C 184.265625 354.667969 185.386719 362.988281 182.792969 370.652344 C 182.382812 371.867188 181.878906 373.0625 181.300781 374.191406 C 181.203125 374.378906 181.015625 374.484375 180.820312 374.484375 " fill-opacity="1" fill-rule="nonzero"/><path fill="#1e015b" d="M 177.90625 324.144531 C 177.894531 324.144531 177.886719 324.144531 177.878906 324.140625 C 177.578125 324.128906 177.351562 323.875 177.363281 323.578125 C 177.851562 313.808594 183.964844 305.234375 192.574219 302.242188 C 192.855469 302.144531 193.164062 302.292969 193.261719 302.574219 C 193.359375 302.855469 193.210938 303.164062 192.925781 303.261719 C 184.730469 306.109375 178.910156 314.296875 178.445312 323.628906 C 178.429688 323.917969 178.191406 324.144531 177.90625 324.144531 " fill-opacity="1" fill-rule="nonzero"/><path fill="#1e015b" d="M 185.914062 307.269531 C 185.820312 307.269531 185.722656 307.25 185.636719 307.195312 C 179.011719 303.285156 174.621094 296.136719 173.890625 288.078125 C 173.773438 286.796875 173.753906 285.503906 173.824219 284.234375 C 173.839844 283.9375 174.097656 283.710938 174.394531 283.726562 C 174.691406 283.742188 174.921875 284 174.902344 284.296875 C 174.835938 285.511719 174.855469 286.75 174.96875 287.980469 C 175.667969 295.695312 179.859375 302.53125 186.1875 306.265625 C 186.445312 306.417969 186.53125 306.75 186.378906 307.003906 C 186.277344 307.175781 186.097656 307.269531 185.914062 307.269531 " fill-opacity="1" fill-rule="nonzero"/><path fill="#1e015b" d="M 214.199219 300.484375 C 214.050781 300.484375 213.90625 300.425781 213.800781 300.3125 C 207.632812 293.640625 207.632812 282.785156 213.800781 276.113281 C 219.855469 269.5625 219.855469 258.902344 213.800781 252.351562 L 211.445312 249.804688 C 211.242188 249.582031 211.257812 249.242188 211.476562 249.039062 C 211.695312 248.835938 212.035156 248.847656 212.238281 249.066406 L 214.59375 251.617188 C 221.023438 258.574219 221.023438 269.890625 214.59375 276.84375 C 208.800781 283.113281 208.800781 293.3125 214.59375 299.578125 C 214.796875 299.796875 214.785156 300.136719 214.566406 300.339844 C 214.460938 300.4375 214.328125 300.484375 214.199219 300.484375 " fill-opacity="1" fill-rule="nonzero"/><path fill="#1e015b" d="M 208.046875 390.136719 C 207.847656 390.136719 207.660156 390.03125 207.5625 389.84375 C 207.425781 389.574219 207.53125 389.25 207.800781 389.113281 C 215.621094 385.125 220.511719 376.164062 219.964844 366.816406 C 219.949219 366.519531 220.175781 366.261719 220.472656 366.246094 C 220.769531 366.226562 221.027344 366.453125 221.046875 366.753906 C 221.617188 376.523438 216.488281 385.898438 208.289062 390.078125 C 208.210938 390.117188 208.128906 390.136719 208.046875 390.136719 " fill-opacity="1" fill-rule="nonzero"/><path fill="#1e015b" d="M 223.191406 344.40625 C 223.113281 344.40625 223.03125 344.390625 222.957031 344.351562 C 214.179688 340.070312 208.535156 331 208.914062 321.78125 C 208.925781 321.484375 209.179688 321.253906 209.476562 321.265625 C 209.773438 321.277344 210.007812 321.527344 209.996094 321.828125 C 209.632812 330.621094 215.035156 339.285156 223.429688 343.378906 C 223.699219 343.511719 223.808594 343.835938 223.679688 344.105469 C 223.585938 344.296875 223.390625 344.40625 223.191406 344.40625 " fill-opacity="1" fill-rule="nonzero"/><path fill="#f1b2ac" d="M 235.820312 240.53125 L 235.765625 240.53125 L 235.765625 392.496094 L 235.769531 392.496094 C 235.769531 392.613281 235.765625 392.726562 235.765625 392.84375 C 235.765625 403.710938 244.632812 412.523438 255.570312 412.523438 C 265.902344 412.523438 274.386719 404.65625 275.292969 394.625 C 277.140625 395.332031 279.125 395.71875 281.195312 395.71875 C 290.976562 395.71875 298.90625 387.140625 298.90625 376.558594 C 298.90625 375.976562 298.878906 375.398438 298.832031 374.828125 C 310.121094 373.921875 319.023438 363.726562 319.023438 351.285156 C 319.023438 343.074219 315.148438 335.84375 309.273438 331.613281 C 315.148438 327.382812 319.023438 320.15625 319.023438 311.945312 C 319.023438 303.28125 314.707031 295.710938 308.277344 291.601562 C 308.996094 289.417969 309.382812 287.066406 309.382812 284.617188 C 309.382812 274.5 302.753906 266.058594 293.9375 264.101562 C 294.03125 263.140625 294.085938 262.160156 294.085938 261.167969 C 294.085938 246.425781 283.15625 234.472656 269.679688 234.472656 C 269.476562 234.472656 269.269531 234.476562 269.0625 234.484375 C 267.273438 225.988281 260.605469 219.679688 252.652344 219.679688 C 243.328125 219.679688 235.765625 228.355469 235.765625 239.058594 C 235.765625 239.554688 235.785156 240.042969 235.820312 240.53125 " fill-opacity="1" fill-rule="nonzero"/><path fill="#1e015b" d="M 236.308594 392.425781 C 236.3125 392.453125 236.3125 392.476562 236.3125 392.503906 L 236.3125 392.550781 C 236.308594 392.648438 236.308594 392.746094 236.308594 392.84375 C 236.308594 403.398438 244.949219 411.980469 255.570312 411.980469 C 265.613281 411.980469 273.859375 404.5 274.753906 394.574219 C 274.769531 394.40625 274.863281 394.253906 275.007812 394.164062 C 275.152344 394.074219 275.328125 394.058594 275.488281 394.117188 C 277.324219 394.820312 279.246094 395.175781 281.195312 395.175781 C 290.664062 395.175781 298.367188 386.824219 298.367188 376.558594 C 298.367188 376.019531 298.34375 375.464844 298.292969 374.871094 C 298.28125 374.726562 298.324219 374.585938 298.417969 374.476562 C 298.511719 374.367188 298.644531 374.296875 298.789062 374.285156 C 309.832031 373.40625 318.484375 363.296875 318.484375 351.28125 C 318.484375 343.535156 314.921875 336.34375 308.960938 332.050781 C 308.820312 331.949219 308.734375 331.785156 308.734375 331.613281 C 308.734375 331.4375 308.820312 331.277344 308.960938 331.175781 C 314.921875 326.878906 318.484375 319.691406 318.484375 311.945312 C 318.484375 303.8125 314.460938 296.191406 307.988281 292.054688 C 307.78125 291.925781 307.6875 291.667969 307.765625 291.433594 C 308.480469 289.246094 308.847656 286.953125 308.847656 284.613281 C 308.847656 274.96875 302.527344 266.558594 293.820312 264.628906 C 293.554688 264.570312 293.371094 264.320312 293.398438 264.046875 C 293.496094 263.085938 293.542969 262.117188 293.542969 261.167969 C 293.542969 246.746094 282.839844 235.011719 269.679688 235.011719 C 269.480469 235.011719 269.28125 235.015625 269.078125 235.019531 C 268.824219 235.027344 268.589844 234.847656 268.535156 234.59375 C 266.75 226.128906 260.21875 220.21875 252.65625 220.21875 C 243.640625 220.21875 236.308594 228.671875 236.308594 239.058594 C 236.308594 239.492188 236.324219 239.945312 236.359375 240.492188 C 236.367188 240.585938 236.347656 240.679688 236.308594 240.761719 Z M 255.570312 413.0625 C 244.351562 413.0625 235.226562 403.992188 235.226562 392.84375 C 235.226562 392.746094 235.226562 392.652344 235.230469 392.554688 C 235.226562 392.535156 235.226562 392.515625 235.226562 392.496094 L 235.226562 240.527344 C 235.226562 240.457031 235.238281 240.386719 235.265625 240.324219 C 235.238281 239.855469 235.226562 239.449219 235.226562 239.058594 C 235.226562 228.074219 243.042969 219.140625 252.65625 219.140625 C 260.601562 219.140625 267.472656 225.199219 269.496094 233.933594 C 269.558594 233.933594 269.621094 233.929688 269.679688 233.929688 C 283.4375 233.929688 294.625 246.148438 294.625 261.167969 C 294.625 262 294.589844 262.84375 294.519531 263.683594 C 303.476562 265.914062 309.925781 274.636719 309.925781 284.613281 C 309.925781 286.925781 309.585938 289.199219 308.921875 291.371094 C 315.496094 295.75 319.566406 303.59375 319.566406 311.945312 C 319.566406 319.78125 316.070312 327.074219 310.179688 331.613281 C 316.070312 336.148438 319.566406 343.445312 319.566406 351.28125 C 319.566406 363.664062 310.753906 374.109375 299.410156 375.316406 C 299.433594 375.742188 299.449219 376.152344 299.449219 376.558594 C 299.449219 387.421875 291.261719 396.257812 281.195312 396.257812 C 279.34375 396.257812 277.515625 395.957031 275.757812 395.363281 C 275.164062 400.105469 272.898438 404.476562 269.332031 407.734375 C 265.570312 411.171875 260.683594 413.0625 255.570312 413.0625 " fill-opacity="1" fill-rule="nonzero"/><path fill="#ea5092" d="M 282.367188 365.175781 C 282.082031 365.175781 281.847656 364.957031 281.828125 364.671875 L 280.296875 343.09375 C 280.039062 339.476562 277.027344 336.664062 273.421875 336.664062 C 273.398438 336.664062 273.375 336.667969 273.351562 336.667969 L 249.792969 336.898438 C 249.5 336.898438 249.25 336.660156 249.246094 336.363281 C 249.242188 336.0625 249.484375 335.820312 249.78125 335.816406 L 273.34375 335.585938 C 277.546875 335.546875 281.078125 338.808594 281.375 343.015625 L 282.90625 364.597656 C 282.925781 364.894531 282.703125 365.152344 282.40625 365.171875 C 282.390625 365.175781 282.378906 365.175781 282.367188 365.175781 " fill-opacity="1" fill-rule="nonzero"/><path fill="#f4f6ff" d="M 282.578125 367.953125 C 280.808594 368.078125 279.273438 366.742188 279.144531 364.964844 C 279.019531 363.191406 280.351562 361.648438 282.125 361.523438 C 283.894531 361.398438 285.429688 362.734375 285.558594 364.507812 C 285.683594 366.285156 284.351562 367.828125 282.578125 367.953125 " fill-opacity="1" fill-rule="nonzero"/><path fill="#ea5092" d="M 265.777344 373.367188 C 265.496094 373.367188 265.257812 373.148438 265.238281 372.863281 L 264.351562 360.359375 C 264.097656 356.746094 261.082031 353.933594 257.476562 353.933594 C 257.453125 353.933594 257.429688 353.933594 257.40625 353.933594 L 249.792969 354.011719 C 249.5 354.015625 249.25 353.773438 249.246094 353.476562 C 249.242188 353.175781 249.484375 352.933594 249.78125 352.929688 L 257.398438 352.855469 C 257.421875 352.855469 257.449219 352.855469 257.476562 352.855469 C 261.648438 352.855469 265.132812 356.105469 265.429688 360.285156 L 266.316406 372.789062 C 266.339844 373.085938 266.113281 373.34375 265.816406 373.363281 C 265.804688 373.363281 265.789062 373.367188 265.777344 373.367188 " fill-opacity="1" fill-rule="nonzero"/><path fill="#f4f6ff" d="M 265.914062 376.585938 C 264.144531 376.710938 262.605469 375.375 262.480469 373.601562 C 262.355469 371.824219 263.6875 370.285156 265.457031 370.15625 C 267.226562 370.03125 268.765625 371.367188 268.890625 373.144531 C 269.019531 374.917969 267.683594 376.460938 265.914062 376.585938 " fill-opacity="1" fill-rule="nonzero"/><path fill="#f4f6ff" d="M 283.5625 323.609375 C 283.5625 323.609375 283.5625 323.609375 283.558594 323.609375 L 249.785156 323.539062 C 249.484375 323.539062 249.242188 323.296875 249.246094 323 C 249.246094 322.699219 249.488281 322.460938 249.785156 322.460938 L 283.5625 322.53125 C 283.863281 322.53125 284.101562 322.773438 284.101562 323.070312 C 284.101562 323.371094 283.859375 323.609375 283.5625 323.609375 " fill-opacity="1" fill-rule="nonzero"/><path fill="#1e015b" d="M 293.527344 326.285156 C 291.757812 326.410156 290.21875 325.074219 290.09375 323.296875 C 289.96875 321.523438 291.300781 319.980469 293.070312 319.855469 C 294.839844 319.730469 296.378906 321.066406 296.503906 322.839844 C 296.628906 324.617188 295.296875 326.160156 293.527344 326.285156 " fill-opacity="1" fill-rule="nonzero"/><path fill="#f4f6ff" d="M 293.300781 313.84375 C 288.226562 313.84375 284.101562 317.984375 284.101562 323.070312 C 284.101562 328.15625 288.226562 332.296875 293.300781 332.296875 C 298.371094 332.296875 302.496094 328.15625 302.496094 323.070312 C 302.496094 317.984375 298.371094 313.84375 293.300781 313.84375 Z M 293.300781 333.375 C 287.632812 333.375 283.019531 328.753906 283.019531 323.070312 C 283.019531 317.386719 287.632812 312.765625 293.300781 312.765625 C 298.964844 312.765625 303.578125 317.386719 303.578125 323.070312 C 303.578125 328.753906 298.964844 333.375 293.300781 333.375 " fill-opacity="1" fill-rule="nonzero"/><path fill="#ea5092" d="M 263.519531 309.1875 L 249.785156 309.1875 C 249.488281 309.1875 249.246094 308.945312 249.246094 308.648438 C 249.246094 308.347656 249.488281 308.109375 249.785156 308.109375 L 263.519531 308.109375 C 265.917969 308.109375 267.246094 307.640625 269.277344 304.738281 C 273.019531 299.398438 282.285156 284.007812 282.378906 283.851562 C 282.53125 283.597656 282.863281 283.515625 283.121094 283.667969 C 283.375 283.824219 283.457031 284.15625 283.304688 284.410156 C 283.210938 284.566406 273.925781 299.988281 270.164062 305.359375 C 268.109375 308.292969 266.558594 309.1875 263.519531 309.1875 " fill-opacity="1" fill-rule="nonzero"/><path fill="#f4f6ff" d="M 286.054688 283.988281 C 286.054688 285.765625 284.617188 287.210938 282.84375 287.210938 C 281.066406 287.210938 279.628906 285.765625 279.628906 283.988281 C 279.628906 282.207031 281.066406 280.761719 282.84375 280.761719 C 284.617188 280.761719 286.054688 282.207031 286.054688 283.988281 " fill-opacity="1" fill-rule="nonzero"/><path fill="#ea5092" d="M 251.71875 287.75 L 249.785156 287.75 C 249.488281 287.75 249.246094 287.507812 249.246094 287.210938 C 249.246094 286.910156 249.488281 286.667969 249.785156 286.667969 L 251.71875 286.667969 C 254.113281 286.667969 255.441406 286.199219 257.472656 283.300781 C 258.988281 281.140625 261.667969 276.949219 265.226562 271.183594 C 265.382812 270.929688 265.714844 270.851562 265.96875 271.007812 C 266.222656 271.164062 266.300781 271.496094 266.144531 271.75 C 262.527344 277.617188 259.90625 281.710938 258.359375 283.917969 C 256.304688 286.855469 254.753906 287.75 251.71875 287.75 " fill-opacity="1" fill-rule="nonzero"/><path fill="#f4f6ff" d="M 268.898438 271.46875 C 268.898438 273.246094 267.460938 274.691406 265.6875 274.691406 C 263.910156 274.691406 262.472656 273.246094 262.472656 271.46875 C 262.472656 269.6875 263.910156 268.246094 265.6875 268.246094 C 267.460938 268.246094 268.898438 269.6875 268.898438 271.46875 " fill-opacity="1" fill-rule="nonzero"/><path fill="#1e015b" d="M 332.722656 373.722656 C 332.742188 373.722656 332.761719 373.722656 332.78125 373.722656 C 339.0625 373.707031 345.523438 369.914062 351.988281 362.457031 C 356.519531 357.226562 359.402344 352.058594 359.523438 351.839844 C 360.484375 350.105469 359.859375 347.917969 358.128906 346.953125 C 356.402344 345.992188 354.21875 346.613281 353.257812 348.351562 C 350.449219 353.402344 341.292969 366.515625 332.761719 366.539062 C 332.75 366.539062 332.738281 366.539062 332.726562 366.539062 C 330.019531 366.539062 327.925781 365.703125 326.332031 363.980469 C 322.507812 359.855469 322.230469 351.617188 322.445312 348.792969 C 322.59375 346.8125 321.117188 345.085938 319.144531 344.9375 C 317.171875 344.785156 315.453125 346.265625 315.300781 348.246094 C 315.257812 348.789062 314.367188 361.625 321.082031 368.871094 C 324.066406 372.09375 327.984375 373.722656 332.722656 373.722656 " fill-opacity="1" fill-rule="nonzero"/><path fill="#1e015b" d="M 307.570312 347.839844 L 328.785156 347.839844 C 330.765625 347.839844 332.367188 346.230469 332.367188 344.246094 C 332.367188 342.261719 330.765625 340.65625 328.785156 340.65625 L 307.570312 340.65625 C 305.589844 340.65625 303.984375 342.261719 303.984375 344.246094 C 303.984375 346.230469 305.589844 347.839844 307.570312 347.839844 " fill-opacity="1" fill-rule="nonzero"/><path fill="#f4f6ff" d="M 336.390625 298.410156 L 336.726562 298.410156 L 336.726562 277.164062 L 336.390625 277.164062 C 330.574219 277.164062 325.859375 281.882812 325.859375 287.699219 L 325.859375 287.875 C 325.859375 293.695312 330.574219 298.410156 336.390625 298.410156 " fill-opacity="1" fill-rule="nonzero"/><path fill="#1e015b" d="M 336.183594 277.707031 C 330.769531 277.816406 326.398438 282.257812 326.398438 287.699219 L 326.398438 287.875 C 326.398438 293.320312 330.769531 297.757812 336.183594 297.867188 Z M 336.726562 298.953125 L 336.390625 298.953125 C 330.285156 298.953125 325.316406 293.980469 325.316406 287.875 L 325.316406 287.699219 C 325.316406 281.59375 330.285156 276.625 336.390625 276.625 L 336.726562 276.625 C 337.027344 276.625 337.269531 276.867188 337.269531 277.164062 L 337.269531 298.410156 C 337.269531 298.707031 337.027344 298.953125 336.726562 298.953125 " fill-opacity="1" fill-rule="nonzero"/><path fill="#f4f6ff" d="M 432.714844 298.410156 L 432.378906 298.410156 L 432.378906 277.164062 L 432.714844 277.164062 C 438.53125 277.164062 443.246094 281.882812 443.246094 287.699219 L 443.246094 287.878906 C 443.246094 293.695312 438.53125 298.410156 432.714844 298.410156 " fill-opacity="1" fill-rule="nonzero"/><path fill="#1e015b" d="M 432.917969 277.710938 L 432.917969 297.867188 C 438.335938 297.757812 442.707031 293.320312 442.707031 287.878906 L 442.707031 287.699219 C 442.707031 282.257812 438.335938 277.816406 432.917969 277.710938 Z M 432.714844 298.953125 L 432.378906 298.953125 C 432.082031 298.953125 431.835938 298.707031 431.835938 298.410156 L 431.835938 277.164062 C 431.835938 276.867188 432.082031 276.625 432.378906 276.625 L 432.714844 276.625 C 438.820312 276.625 443.785156 281.59375 443.785156 287.699219 L 443.785156 287.878906 C 443.785156 293.984375 438.820312 298.953125 432.714844 298.953125 " fill-opacity="1" fill-rule="nonzero"/><path fill="#f4f6ff" d="M 435.800781 286.910156 C 435.800781 264.082031 412.855469 240.46875 384.554688 240.46875 C 356.25 240.46875 333.304688 264.082031 333.304688 286.910156 C 333.304688 309.738281 356.25 323.136719 384.554688 323.136719 C 412.855469 323.136719 435.800781 309.738281 435.800781 286.910156 " fill-opacity="1" fill-rule="nonzero"/><path fill="#1e015b" d="M 384.554688 241.007812 C 355.53125 241.007812 333.84375 265.242188 333.84375 286.910156 C 333.84375 297.601562 338.953125 306.671875 348.613281 313.136719 C 357.734375 319.238281 370.5 322.597656 384.554688 322.597656 C 398.605469 322.597656 411.367188 319.238281 420.492188 313.136719 C 430.15625 306.671875 435.261719 297.601562 435.261719 286.910156 C 435.261719 265.242188 413.578125 241.007812 384.554688 241.007812 Z M 384.554688 323.675781 C 370.289062 323.675781 357.3125 320.25 348.011719 314.035156 C 338.035156 307.359375 332.761719 297.980469 332.761719 286.910156 C 332.761719 275.570312 338.296875 263.847656 347.941406 254.734375 C 358.054688 245.1875 371.054688 239.925781 384.554688 239.925781 C 398.046875 239.925781 411.050781 245.1875 421.164062 254.734375 C 430.808594 263.847656 436.34375 275.570312 436.34375 286.910156 C 436.34375 297.980469 431.070312 307.359375 421.09375 314.035156 C 411.792969 320.25 398.816406 323.675781 384.554688 323.675781 " fill-opacity="1" fill-rule="nonzero"/><path fill="#f4f6ff" d="M 372.015625 329.996094 L 397.691406 329.996094 C 408.945312 329.996094 418.066406 339.144531 418.066406 350.429688 C 418.066406 357.882812 417.34375 365.320312 415.902344 372.636719 L 412.210938 391.382812 C 409.628906 404.484375 398.171875 413.929688 384.851562 413.929688 C 371.539062 413.929688 360.078125 404.484375 357.5 391.382812 L 353.808594 372.636719 C 352.367188 365.320312 351.644531 357.882812 351.644531 350.429688 C 351.644531 339.144531 360.765625 329.996094 372.015625 329.996094 " fill-opacity="1" fill-rule="nonzero"/><path fill="#1e015b" d="M 372.019531 330.535156 C 361.082031 330.535156 352.183594 339.460938 352.183594 350.429688 C 352.183594 357.832031 352.90625 365.269531 354.339844 372.53125 L 358.03125 391.277344 C 360.550781 404.089844 371.835938 413.386719 384.855469 413.386719 C 397.875 413.386719 409.160156 404.089844 411.679688 391.277344 L 415.371094 372.53125 C 416.800781 365.269531 417.527344 357.832031 417.527344 350.429688 C 417.527344 339.460938 408.628906 330.535156 397.691406 330.535156 Z M 384.855469 414.46875 C 371.320312 414.46875 359.589844 404.804688 356.96875 391.488281 L 353.277344 372.738281 C 351.835938 365.410156 351.101562 357.902344 351.101562 350.429688 C 351.101562 338.863281 360.484375 329.453125 372.019531 329.453125 L 397.691406 329.453125 C 409.222656 329.453125 418.605469 338.863281 418.605469 350.429688 C 418.605469 357.902344 417.875 365.410156 416.433594 372.738281 L 412.738281 391.488281 C 410.117188 404.804688 398.390625 414.46875 384.855469 414.46875 " fill-opacity="1" fill-rule="nonzero"/><path fill="#1e015b" d="M 398.527344 330.535156 L 370.578125 330.535156 C 370.28125 330.535156 370.039062 330.292969 370.039062 329.996094 C 370.039062 329.695312 370.28125 329.453125 370.578125 329.453125 L 398.527344 329.453125 C 398.824219 329.453125 399.070312 329.695312 399.070312 329.996094 C 399.070312 330.292969 398.824219 330.535156 398.527344 330.535156 " fill-opacity="1" fill-rule="nonzero"/><path fill="#1e015b" d="M 350.097656 280.058594 L 399.449219 280.058594 C 404.578125 280.058594 408.730469 284.550781 408.730469 290.089844 L 408.730469 296.632812 C 408.730469 300.859375 406.484375 305.339844 402.605469 306.066406 C 388.925781 308.648438 360.617188 308.648438 346.941406 306.066406 C 343.0625 305.339844 340.8125 300.859375 340.8125 296.632812 L 340.8125 290.089844 C 340.8125 284.550781 344.96875 280.058594 350.097656 280.058594 " fill-opacity="1" fill-rule="nonzero"/><path fill="#f1b2ac" d="M 386.371094 293.230469 C 386.371094 295.085938 387.761719 296.589844 389.480469 296.589844 C 391.195312 296.589844 392.589844 295.085938 392.589844 293.230469 C 392.589844 291.371094 391.195312 289.867188 389.480469 289.867188 C 387.761719 289.867188 386.371094 291.371094 386.371094 293.230469 " fill-opacity="1" fill-rule="nonzero"/><path fill="#f1b2ac" d="M 353.28125 293.230469 C 353.28125 295.085938 354.671875 296.589844 356.390625 296.589844 C 358.105469 296.589844 359.5 295.085938 359.5 293.230469 C 359.5 291.371094 358.105469 289.871094 356.390625 289.871094 C 354.671875 289.871094 353.28125 291.371094 353.28125 293.230469 " fill-opacity="1" fill-rule="nonzero"/><path fill="#7d78a3" d="M 378.078125 367.808594 L 391.628906 367.808594 C 395.242188 367.808594 398.167969 364.882812 398.167969 361.277344 L 398.167969 330.46875 L 371.542969 330.46875 L 371.542969 361.277344 C 371.542969 364.882812 374.46875 367.808594 378.078125 367.808594 " fill-opacity="1" fill-rule="nonzero"/><path fill="#1e015b" d="M 417.332031 390.054688 C 424.351562 390.054688 433.847656 389.054688 439.9375 384.371094 C 443.445312 381.675781 445.496094 378.113281 446.023438 373.789062 C 448.421875 354.363281 425.046875 343.246094 424.054688 342.785156 C 422.257812 341.949219 420.128906 342.730469 419.296875 344.527344 C 418.460938 346.328125 419.238281 348.460938 421.03125 349.296875 C 421.226562 349.390625 440.667969 358.683594 438.917969 372.90625 C 438.621094 375.28125 437.53125 377.167969 435.574219 378.671875 C 428.882812 383.816406 414.289062 383.09375 409.230469 382.382812 C 407.269531 382.105469 405.457031 383.472656 405.183594 385.4375 C 404.90625 387.402344 406.273438 389.222656 408.234375 389.496094 C 408.59375 389.546875 412.332031 390.054688 417.332031 390.054688 " fill-opacity="1" fill-rule="nonzero"/><path fill="#1e015b" d="M 392.59375 393.878906 L 399.476562 393.878906 C 403.234375 393.878906 406.351562 391.046875 406.726562 387.296875 L 406.964844 384.894531 C 407.167969 382.847656 406.496094 380.792969 405.117188 379.265625 C 403.738281 377.738281 401.769531 376.863281 399.714844 376.863281 L 388.742188 376.863281 C 386.761719 376.863281 385.160156 378.472656 385.160156 380.457031 C 385.160156 382.441406 386.761719 384.046875 388.742188 384.046875 L 399.714844 384.046875 C 399.734375 384.046875 399.769531 384.046875 399.804688 384.089844 C 399.839844 384.128906 399.835938 384.164062 399.835938 384.179688 L 399.59375 386.582031 C 399.589844 386.644531 399.535156 386.691406 399.476562 386.691406 L 392.59375 386.691406 C 390.617188 386.691406 389.011719 388.300781 389.011719 390.285156 C 389.011719 392.269531 390.617188 393.878906 392.59375 393.878906 " fill-opacity="1" fill-rule="nonzero"/><path fill="#f4f6ff" d="M 355.339844 344.605469 C 355.121094 344.605469 354.917969 344.476562 354.835938 344.261719 C 354.324219 342.933594 353.738281 341.621094 353.105469 340.359375 C 352.96875 340.09375 353.078125 339.769531 353.339844 339.632812 C 353.605469 339.5 353.933594 339.605469 354.066406 339.871094 C 354.722656 341.167969 355.316406 342.511719 355.84375 343.871094 C 355.953125 344.148438 355.8125 344.464844 355.535156 344.570312 C 355.472656 344.59375 355.402344 344.605469 355.339844 344.605469 Z M 357.675781 352.917969 C 357.421875 352.917969 357.195312 352.738281 357.144531 352.476562 C 356.886719 351.070312 356.5625 349.667969 356.183594 348.3125 C 356.101562 348.023438 356.269531 347.726562 356.554688 347.648438 C 356.847656 347.566406 357.144531 347.734375 357.222656 348.023438 C 357.613281 349.40625 357.945312 350.839844 358.210938 352.28125 C 358.265625 352.574219 358.070312 352.855469 357.773438 352.910156 C 357.742188 352.917969 357.710938 352.917969 357.675781 352.917969 Z M 358.511719 361.515625 C 358.214844 361.515625 357.972656 361.28125 357.96875 360.984375 C 357.949219 359.546875 357.871094 358.109375 357.734375 356.710938 C 357.707031 356.414062 357.925781 356.152344 358.222656 356.121094 C 358.519531 356.09375 358.785156 356.3125 358.8125 356.609375 C 358.949219 358.035156 359.03125 359.503906 359.050781 360.96875 C 359.054688 361.265625 358.816406 361.511719 358.519531 361.515625 C 358.515625 361.515625 358.511719 361.515625 358.511719 361.515625 Z M 357.96875 370.140625 C 357.945312 370.140625 357.921875 370.140625 357.894531 370.136719 C 357.601562 370.097656 357.394531 369.824219 357.433594 369.527344 C 357.632812 368.113281 357.773438 366.679688 357.863281 365.265625 C 357.882812 364.96875 358.132812 364.742188 358.4375 364.757812 C 358.734375 364.777344 358.960938 365.035156 358.945312 365.332031 C 358.851562 366.773438 358.707031 368.238281 358.503906 369.675781 C 358.46875 369.945312 358.234375 370.140625 357.96875 370.140625 Z M 356.089844 378.578125 C 356.03125 378.578125 355.96875 378.570312 355.910156 378.550781 C 355.628906 378.449219 355.480469 378.140625 355.582031 377.855469 C 355.585938 377.84375 356.125 376.308594 356.6875 373.742188 C 356.75 373.453125 357.035156 373.269531 357.328125 373.332031 C 357.621094 373.394531 357.804688 373.683594 357.742188 373.976562 C 357.167969 376.613281 356.621094 378.15625 356.601562 378.21875 C 356.519531 378.441406 356.3125 378.578125 356.089844 378.578125 " fill-opacity="1" fill-rule="nonzero"/><path fill="#1e015b" d="M 352.0625 169.761719 C 351.996094 169.761719 351.929688 169.75 351.863281 169.722656 C 351.585938 169.613281 351.453125 169.296875 351.5625 169.019531 L 352.601562 166.425781 C 352.714844 166.148438 353.03125 166.011719 353.304688 166.125 C 353.582031 166.234375 353.71875 166.550781 353.605469 166.828125 L 352.566406 169.421875 C 352.480469 169.636719 352.277344 169.761719 352.0625 169.761719 " fill-opacity="1" fill-rule="nonzero"/><path fill="#1e015b" d="M 349.640625 175.8125 C 349.570312 175.8125 349.503906 175.800781 349.4375 175.773438 C 349.160156 175.664062 349.027344 175.347656 349.136719 175.070312 L 350.179688 172.472656 C 350.289062 172.195312 350.605469 172.0625 350.882812 172.171875 C 351.15625 172.285156 351.292969 172.597656 351.183594 172.875 L 350.140625 175.472656 C 350.054688 175.683594 349.851562 175.8125 349.640625 175.8125 " fill-opacity="1" fill-rule="nonzero"/><path fill="#1e015b" d="M 349.652344 170.796875 C 349.585938 170.796875 349.515625 170.78125 349.449219 170.753906 L 346.859375 169.710938 C 346.585938 169.601562 346.449219 169.285156 346.558594 169.007812 C 346.671875 168.730469 346.988281 168.597656 347.265625 168.707031 L 349.851562 169.753906 C 350.128906 169.863281 350.265625 170.179688 350.152344 170.457031 C 350.070312 170.667969 349.863281 170.796875 349.652344 170.796875 " fill-opacity="1" fill-rule="nonzero"/><path fill="#1e015b" d="M 355.683594 173.226562 C 355.617188 173.226562 355.550781 173.214844 355.480469 173.1875 L 352.894531 172.140625 C 352.617188 172.03125 352.480469 171.714844 352.59375 171.441406 C 352.703125 171.160156 353.019531 171.027344 353.296875 171.140625 L 355.886719 172.183594 C 356.164062 172.296875 356.296875 172.613281 356.183594 172.886719 C 356.101562 173.097656 355.898438 173.226562 355.683594 173.226562 " fill-opacity="1" fill-rule="nonzero"/><path fill="#1e015b" d="M 336.121094 161.394531 C 334.921875 162.191406 334.585938 163.84375 335.375 165.082031 C 335.757812 165.683594 336.347656 166.09375 337.035156 166.242188 C 337.703125 166.382812 338.386719 166.25 338.957031 165.875 C 340.15625 165.074219 340.492188 163.425781 339.703125 162.1875 C 339.320312 161.585938 338.730469 161.171875 338.042969 161.027344 C 337.375 160.886719 336.691406 161.015625 336.121094 161.394531 Z M 337.566406 167.378906 C 337.316406 167.378906 337.0625 167.351562 336.8125 167.296875 C 335.839844 167.09375 335.003906 166.511719 334.464844 165.664062 C 333.359375 163.933594 333.835938 161.617188 335.523438 160.496094 C 336.339844 159.957031 337.3125 159.769531 338.269531 159.96875 C 339.238281 160.175781 340.074219 160.757812 340.617188 161.605469 C 341.71875 163.335938 341.242188 165.652344 339.554688 166.773438 C 338.953125 167.171875 338.269531 167.378906 337.566406 167.378906 " fill-opacity="1" fill-rule="nonzero"/><path fill="#1e015b" d="M 360.269531 417.332031 C 360.074219 417.332031 359.882812 417.222656 359.789062 417.03125 C 359.652344 416.765625 359.761719 416.441406 360.027344 416.304688 L 362.523438 415.054688 C 362.789062 414.921875 363.117188 415.027344 363.25 415.292969 C 363.382812 415.5625 363.273438 415.886719 363.011719 416.019531 L 360.511719 417.273438 C 360.433594 417.308594 360.351562 417.332031 360.269531 417.332031 " fill-opacity="1" fill-rule="nonzero"/><path fill="#1e015b" d="M 354.457031 420.246094 C 354.257812 420.246094 354.070312 420.136719 353.972656 419.949219 C 353.839844 419.683594 353.949219 419.355469 354.214844 419.222656 L 356.710938 417.96875 C 356.976562 417.835938 357.300781 417.945312 357.433594 418.210938 C 357.570312 418.476562 357.460938 418.804688 357.195312 418.9375 L 354.699219 420.191406 C 354.621094 420.230469 354.539062 420.246094 354.457031 420.246094 " fill-opacity="1" fill-rule="nonzero"/><path fill="#1e015b" d="M 357.78125 416.5 C 357.582031 416.5 357.394531 416.390625 357.296875 416.199219 L 356.050781 413.695312 C 355.914062 413.429688 356.023438 413.105469 356.292969 412.96875 C 356.558594 412.839844 356.882812 412.945312 357.015625 413.214844 L 358.265625 415.714844 C 358.398438 415.984375 358.289062 416.308594 358.023438 416.441406 C 357.945312 416.480469 357.863281 416.5 357.78125 416.5 " fill-opacity="1" fill-rule="nonzero"/><path fill="#1e015b" d="M 360.691406 422.328125 C 360.492188 422.328125 360.300781 422.21875 360.207031 422.027344 L 358.957031 419.527344 C 358.824219 419.257812 358.933594 418.933594 359.199219 418.800781 C 359.464844 418.667969 359.792969 418.777344 359.925781 419.042969 L 361.171875 421.546875 C 361.308594 421.8125 361.199219 422.136719 360.933594 422.273438 C 360.851562 422.308594 360.773438 422.328125 360.691406 422.328125 " fill-opacity="1" fill-rule="nonzero"/><path fill="#f4f6ff" d="M 362.476562 345.574219 C 362.273438 345.574219 362.078125 345.457031 361.984375 345.257812 C 361.40625 344.003906 360.761719 342.710938 360.070312 341.414062 C 359.933594 341.152344 360.03125 340.824219 360.296875 340.683594 C 360.558594 340.542969 360.886719 340.644531 361.027344 340.90625 C 361.726562 342.222656 362.378906 343.535156 362.96875 344.804688 C 363.09375 345.074219 362.972656 345.398438 362.703125 345.523438 C 362.628906 345.554688 362.554688 345.574219 362.476562 345.574219 Z M 365.566406 353.640625 C 365.332031 353.640625 365.117188 353.488281 365.046875 353.253906 C 364.652344 351.929688 364.1875 350.566406 363.664062 349.207031 C 363.554688 348.925781 363.691406 348.613281 363.972656 348.507812 C 364.246094 348.398438 364.5625 348.535156 364.671875 348.816406 C 365.207031 350.207031 365.679688 351.59375 366.082031 352.945312 C 366.167969 353.230469 366.007812 353.535156 365.71875 353.617188 C 365.667969 353.632812 365.617188 353.640625 365.566406 353.640625 Z M 367.234375 362.109375 C 366.960938 362.109375 366.722656 361.898438 366.695312 361.617188 C 366.570312 360.234375 366.363281 358.8125 366.082031 357.398438 C 366.023438 357.105469 366.210938 356.820312 366.503906 356.761719 C 366.796875 356.707031 367.082031 356.894531 367.140625 357.1875 C 367.429688 358.640625 367.644531 360.097656 367.773438 361.519531 C 367.804688 361.816406 367.582031 362.078125 367.285156 362.109375 C 367.269531 362.109375 367.25 362.109375 367.234375 362.109375 Z M 367.035156 370.734375 C 367.007812 370.734375 366.984375 370.730469 366.957031 370.726562 C 366.660156 370.6875 366.457031 370.414062 366.496094 370.117188 C 366.695312 368.714844 366.8125 367.289062 366.847656 365.875 C 366.851562 365.578125 367.113281 365.34375 367.398438 365.347656 C 367.699219 365.355469 367.933594 365.601562 367.925781 365.898438 C 367.894531 367.355469 367.773438 368.828125 367.566406 370.269531 C 367.53125 370.539062 367.296875 370.734375 367.035156 370.734375 Z M 364.84375 379.082031 C 364.78125 379.082031 364.714844 379.070312 364.652344 379.046875 C 364.371094 378.9375 364.234375 378.625 364.339844 378.347656 C 364.855469 377.003906 365.296875 375.636719 365.652344 374.292969 C 365.726562 374 366.019531 373.828125 366.3125 373.90625 C 366.597656 373.980469 366.773438 374.277344 366.695312 374.566406 C 366.332031 375.953125 365.878906 377.351562 365.351562 378.730469 C 365.265625 378.949219 365.0625 379.082031 364.84375 379.082031 Z M 361.019531 386.824219 C 360.925781 386.824219 360.828125 386.796875 360.738281 386.742188 C 360.484375 386.589844 360.402344 386.257812 360.558594 386.003906 C 361.308594 384.753906 362.003906 383.496094 362.621094 382.253906 C 362.753906 381.988281 363.078125 381.878906 363.34375 382.011719 C 363.613281 382.144531 363.722656 382.46875 363.589844 382.738281 C 362.960938 384 362.253906 385.289062 361.480469 386.5625 C 361.378906 386.730469 361.203125 386.824219 361.019531 386.824219 Z M 289.980469 389.324219 C 289.757812 389.324219 289.546875 389.183594 289.46875 388.957031 C 289.375 388.675781 289.527344 388.367188 289.808594 388.273438 C 291.203125 387.800781 292.722656 387.632812 294.300781 387.785156 C 294.597656 387.8125 294.8125 388.078125 294.789062 388.375 C 294.757812 388.667969 294.5 388.886719 294.199219 388.859375 C 292.773438 388.726562 291.40625 388.871094 290.15625 389.296875 C 290.097656 389.316406 290.039062 389.324219 289.980469 389.324219 Z M 302.175781 392.078125 C 302.066406 392.078125 301.957031 392.042969 301.859375 391.976562 C 300.671875 391.128906 299.441406 390.433594 298.207031 389.910156 C 297.929688 389.796875 297.800781 389.476562 297.917969 389.203125 C 298.03125 388.929688 298.351562 388.800781 298.625 388.914062 C 299.9375 389.46875 301.234375 390.203125 302.488281 391.097656 C 302.730469 391.269531 302.789062 391.605469 302.613281 391.851562 C 302.507812 392 302.339844 392.078125 302.175781 392.078125 Z M 356.089844 393.917969 C 355.972656 393.917969 355.855469 393.882812 355.757812 393.808594 C 355.523438 393.625 355.480469 393.285156 355.660156 393.050781 C 356.488281 391.976562 357.34375 390.8125 358.210938 389.585938 C 358.382812 389.339844 358.71875 389.285156 358.960938 389.457031 C 359.203125 389.628906 359.265625 389.964844 359.09375 390.207031 C 358.21875 391.449219 357.351562 392.625 356.515625 393.710938 C 356.410156 393.847656 356.25 393.917969 356.089844 393.917969 Z M 284.210938 395.296875 C 284.160156 395.296875 284.109375 395.289062 284.054688 395.277344 C 283.769531 395.191406 283.605469 394.890625 283.691406 394.605469 C 284.148438 393.078125 284.910156 391.753906 285.960938 390.671875 C 286.167969 390.457031 286.511719 390.453125 286.722656 390.660156 C 286.9375 390.867188 286.941406 391.210938 286.734375 391.425781 C 285.808594 392.378906 285.132812 393.550781 284.726562 394.914062 C 284.660156 395.148438 284.445312 395.296875 284.210938 395.296875 Z M 308.015625 398.375 C 307.824219 398.375 307.644531 398.277344 307.542969 398.101562 C 306.898438 396.964844 306.054688 395.839844 305.03125 394.75 C 304.828125 394.53125 304.835938 394.191406 305.054688 393.984375 C 305.273438 393.78125 305.613281 393.792969 305.820312 394.011719 C 306.898438 395.160156 307.796875 396.355469 308.484375 397.566406 C 308.628906 397.824219 308.539062 398.15625 308.28125 398.304688 C 308.195312 398.351562 308.101562 398.375 308.015625 398.375 Z M 350.417969 400.433594 C 350.277344 400.433594 350.140625 400.378906 350.035156 400.273438 C 349.824219 400.0625 349.824219 399.71875 350.035156 399.507812 C 351.003906 398.542969 351.984375 397.488281 352.949219 396.371094 C 353.144531 396.148438 353.488281 396.125 353.710938 396.320312 C 353.9375 396.515625 353.960938 396.855469 353.765625 397.082031 C 352.785156 398.214844 351.785156 399.289062 350.796875 400.273438 C 350.695312 400.378906 350.554688 400.433594 350.417969 400.433594 Z M 174.488281 403.585938 C 174.210938 403.585938 173.976562 403.375 173.953125 403.089844 C 173.925781 402.792969 174.148438 402.53125 174.445312 402.507812 C 175.859375 402.390625 177.324219 402.3125 178.796875 402.28125 C 179.097656 402.273438 179.339844 402.511719 179.347656 402.808594 C 179.355469 403.109375 179.117188 403.355469 178.820312 403.363281 C 177.371094 403.394531 175.929688 403.46875 174.535156 403.585938 C 174.519531 403.585938 174.503906 403.585938 174.488281 403.585938 Z M 187.449219 403.632812 C 187.433594 403.632812 187.417969 403.628906 187.40625 403.628906 C 185.960938 403.511719 184.519531 403.429688 183.113281 403.382812 C 182.816406 403.375 182.582031 403.125 182.589844 402.824219 C 182.601562 402.527344 182.847656 402.292969 183.148438 402.304688 C 184.570312 402.347656 186.03125 402.433594 187.492188 402.550781 C 187.789062 402.578125 188.011719 402.835938 187.988281 403.132812 C 187.964844 403.417969 187.726562 403.632812 187.449219 403.632812 Z M 284.777344 403.773438 C 284.5625 403.773438 284.359375 403.644531 284.273438 403.433594 C 283.714844 402.019531 283.371094 400.554688 283.257812 399.078125 C 283.234375 398.78125 283.457031 398.523438 283.753906 398.5 C 284.058594 398.476562 284.3125 398.699219 284.335938 398.996094 C 284.441406 400.363281 284.761719 401.722656 285.28125 403.035156 C 285.386719 403.3125 285.253906 403.625 284.976562 403.734375 C 284.910156 403.761719 284.84375 403.773438 284.777344 403.773438 Z M 196.027344 404.726562 C 195.996094 404.726562 195.964844 404.722656 195.933594 404.71875 C 194.515625 404.472656 193.082031 404.257812 191.679688 404.078125 C 191.382812 404.039062 191.175781 403.769531 191.210938 403.472656 C 191.25 403.179688 191.523438 402.96875 191.816406 403.007812 C 193.234375 403.1875 194.683594 403.40625 196.117188 403.652344 C 196.410156 403.703125 196.609375 403.984375 196.558594 404.277344 C 196.511719 404.539062 196.285156 404.726562 196.027344 404.726562 Z M 165.949219 404.894531 C 165.703125 404.894531 165.480469 404.726562 165.421875 404.476562 C 165.355469 404.1875 165.539062 403.894531 165.828125 403.828125 C 167.210938 403.507812 168.652344 403.234375 170.117188 403.011719 C 170.410156 402.96875 170.6875 403.171875 170.730469 403.464844 C 170.777344 403.761719 170.574219 404.039062 170.277344 404.082031 C 168.84375 404.300781 167.429688 404.570312 166.070312 404.882812 C 166.03125 404.890625 165.988281 404.894531 165.949219 404.894531 Z M 343.78125 405.953125 C 343.613281 405.953125 343.441406 405.867188 343.335938 405.714844 C 343.167969 405.46875 343.230469 405.132812 343.480469 404.964844 C 344.636719 404.179688 345.78125 403.316406 346.882812 402.394531 C 347.113281 402.199219 347.453125 402.230469 347.648438 402.460938 C 347.835938 402.691406 347.804688 403.03125 347.578125 403.222656 C 346.445312 404.167969 345.273438 405.054688 344.085938 405.859375 C 343.992188 405.921875 343.890625 405.953125 343.78125 405.953125 Z M 204.480469 406.542969 C 204.433594 406.542969 204.390625 406.539062 204.34375 406.527344 C 202.960938 406.171875 201.550781 405.835938 200.15625 405.535156 C 199.863281 405.472656 199.679688 405.183594 199.742188 404.894531 C 199.804688 404.601562 200.09375 404.417969 200.382812 404.480469 C 201.792969 404.78125 203.214844 405.121094 204.613281 405.480469 C 204.902344 405.554688 205.078125 405.847656 205.003906 406.140625 C 204.9375 406.382812 204.71875 406.542969 204.480469 406.542969 Z M 310.332031 406.628906 C 310.042969 406.628906 309.804688 406.402344 309.792969 406.113281 C 309.730469 404.738281 309.503906 403.347656 309.117188 401.976562 C 309.035156 401.691406 309.203125 401.394531 309.488281 401.3125 C 309.773438 401.230469 310.074219 401.394531 310.15625 401.683594 C 310.566406 403.132812 310.808594 404.605469 310.871094 406.066406 C 310.886719 406.363281 310.652344 406.617188 310.355469 406.628906 C 310.347656 406.628906 310.339844 406.628906 310.332031 406.628906 Z M 212.753906 409.046875 C 212.695312 409.046875 212.636719 409.039062 212.578125 409.019531 C 211.246094 408.550781 209.867188 408.101562 208.488281 407.6875 C 208.199219 407.601562 208.039062 407.296875 208.125 407.011719 C 208.210938 406.726562 208.511719 406.5625 208.800781 406.652344 C 210.195312 407.074219 211.585938 407.527344 212.933594 407.996094 C 213.214844 408.097656 213.363281 408.40625 213.265625 408.6875 C 213.1875 408.910156 212.976562 409.046875 212.753906 409.046875 Z M 336.195312 410.050781 C 335.984375 410.050781 335.78125 409.925781 335.695312 409.71875 C 335.582031 409.445312 335.710938 409.125 335.984375 409.007812 C 337.3125 408.449219 338.609375 407.832031 339.835938 407.171875 C 340.101562 407.03125 340.425781 407.128906 340.566406 407.394531 C 340.710938 407.65625 340.613281 407.984375 340.347656 408.125 C 339.09375 408.800781 337.765625 409.433594 336.402344 410.007812 C 336.335938 410.035156 336.261719 410.050781 336.195312 410.050781 Z M 290.152344 410.375 C 290.046875 410.375 289.9375 410.34375 289.84375 410.28125 C 288.664062 409.457031 287.613281 408.523438 286.71875 407.503906 C 286.660156 407.433594 286.601562 407.363281 286.539062 407.292969 C 286.351562 407.066406 286.378906 406.722656 286.609375 406.53125 C 286.835938 406.339844 287.175781 406.371094 287.371094 406.601562 C 287.425781 406.664062 287.476562 406.730469 287.53125 406.792969 C 288.367188 407.746094 289.351562 408.621094 290.460938 409.394531 C 290.707031 409.5625 290.765625 409.898438 290.597656 410.144531 C 290.492188 410.296875 290.324219 410.375 290.152344 410.375 Z M 220.765625 412.304688 C 220.691406 412.304688 220.613281 412.285156 220.542969 412.253906 C 219.148438 411.617188 217.855469 411.058594 216.59375 410.542969 C 216.316406 410.429688 216.183594 410.113281 216.296875 409.839844 C 216.410156 409.5625 216.726562 409.429688 217.003906 409.542969 C 218.277344 410.0625 219.582031 410.628906 220.988281 411.269531 C 221.261719 411.394531 221.382812 411.714844 221.257812 411.988281 C 221.167969 412.1875 220.96875 412.304688 220.765625 412.304688 Z M 327.992188 412.746094 C 327.75 412.746094 327.53125 412.582031 327.46875 412.335938 C 327.394531 412.046875 327.570312 411.753906 327.859375 411.679688 C 329.289062 411.316406 330.675781 410.921875 331.972656 410.496094 C 332.261719 410.402344 332.566406 410.558594 332.65625 410.84375 C 332.75 411.128906 332.59375 411.433594 332.3125 411.523438 C 330.984375 411.957031 329.578125 412.363281 328.121094 412.726562 C 328.078125 412.738281 328.035156 412.746094 327.992188 412.746094 Z M 298.035156 413.824219 C 297.992188 413.824219 297.945312 413.820312 297.898438 413.808594 C 296.410156 413.421875 295.007812 412.953125 293.726562 412.402344 C 293.453125 412.285156 293.324219 411.96875 293.441406 411.695312 C 293.558594 411.417969 293.878906 411.292969 294.152344 411.410156 C 295.382812 411.9375 296.734375 412.390625 298.167969 412.761719 C 298.457031 412.835938 298.632812 413.132812 298.558594 413.421875 C 298.496094 413.664062 298.273438 413.824219 298.035156 413.824219 Z M 319.515625 414.425781 C 319.25 414.425781 319.019531 414.230469 318.980469 413.960938 C 318.9375 413.667969 319.140625 413.390625 319.4375 413.351562 C 319.957031 413.273438 320.460938 413.195312 320.953125 413.113281 C 321.882812 412.953125 322.796875 412.789062 323.671875 412.617188 C 323.960938 412.558594 324.246094 412.75 324.304688 413.042969 C 324.363281 413.335938 324.171875 413.621094 323.878906 413.675781 C 322.996094 413.851562 322.074219 414.019531 321.132812 414.179688 C 320.632812 414.261719 320.117188 414.34375 319.59375 414.417969 C 319.566406 414.425781 319.542969 414.425781 319.515625 414.425781 Z M 308.710938 415.042969 C 308.640625 415.042969 308.5625 415.03125 308.496094 415 C 308.222656 414.878906 308.09375 414.558594 308.214844 414.285156 C 308.789062 412.972656 309.214844 411.625 309.476562 410.285156 C 309.53125 409.988281 309.820312 409.800781 310.109375 409.855469 C 310.402344 409.914062 310.59375 410.199219 310.535156 410.492188 C 310.257812 411.910156 309.8125 413.332031 309.207031 414.71875 C 309.117188 414.921875 308.917969 415.042969 308.710938 415.042969 Z M 306.578125 415.070312 C 306.570312 415.070312 306.558594 415.070312 306.550781 415.070312 C 305.046875 414.992188 303.582031 414.851562 302.199219 414.65625 C 301.902344 414.613281 301.695312 414.339844 301.738281 414.046875 C 301.78125 413.75 302.054688 413.542969 302.347656 413.585938 C 303.703125 413.777344 305.136719 413.914062 306.605469 413.992188 C 306.902344 414.007812 307.132812 414.261719 307.117188 414.558594 C 307.101562 414.847656 306.863281 415.070312 306.578125 415.070312 Z M 310.902344 415.140625 C 310.609375 415.140625 310.367188 414.90625 310.363281 414.609375 C 310.355469 414.3125 310.59375 414.0625 310.890625 414.058594 C 312.292969 414.03125 313.734375 413.957031 315.171875 413.835938 C 315.46875 413.8125 315.734375 414.03125 315.757812 414.328125 C 315.78125 414.628906 315.5625 414.890625 315.265625 414.914062 C 313.800781 415.035156 312.335938 415.113281 310.914062 415.140625 C 310.90625 415.140625 310.902344 415.140625 310.902344 415.140625 Z M 228.542969 416.085938 C 228.460938 416.085938 228.378906 416.066406 228.300781 416.027344 C 226.882812 415.304688 225.621094 414.675781 224.4375 414.097656 C 224.171875 413.964844 224.058594 413.644531 224.191406 413.375 C 224.320312 413.105469 224.644531 412.996094 224.914062 413.125 C 226.101562 413.707031 227.371094 414.339844 228.789062 415.066406 C 229.054688 415.199219 229.160156 415.527344 229.027344 415.792969 C 228.929688 415.980469 228.742188 416.085938 228.542969 416.085938 Z M 236.226562 420.066406 C 236.140625 420.066406 236.054688 420.046875 235.976562 420.003906 L 232.140625 418.007812 C 231.875 417.871094 231.773438 417.542969 231.910156 417.28125 C 232.046875 417.015625 232.371094 416.910156 232.640625 417.050781 L 236.476562 419.046875 C 236.742188 419.183594 236.84375 419.511719 236.707031 419.773438 C 236.609375 419.960938 236.421875 420.066406 236.226562 420.066406 Z M 303.917969 422.191406 C 303.785156 422.191406 303.65625 422.144531 303.550781 422.046875 C 303.332031 421.84375 303.320312 421.503906 303.523438 421.285156 C 304.511719 420.222656 305.402344 419.109375 306.167969 417.976562 C 306.339844 417.730469 306.671875 417.664062 306.921875 417.832031 C 307.167969 418 307.230469 418.335938 307.066406 418.582031 C 306.265625 419.761719 305.339844 420.917969 304.316406 422.023438 C 304.207031 422.136719 304.0625 422.191406 303.917969 422.191406 Z M 243.933594 423.992188 C 243.851562 423.992188 243.773438 423.972656 243.695312 423.9375 C 242.496094 423.347656 241.230469 422.710938 239.824219 421.992188 C 239.558594 421.855469 239.453125 421.53125 239.589844 421.261719 C 239.722656 420.996094 240.050781 420.894531 240.316406 421.027344 C 241.71875 421.746094 242.980469 422.378906 244.171875 422.96875 C 244.441406 423.097656 244.550781 423.421875 244.417969 423.691406 C 244.324219 423.882812 244.132812 423.992188 243.933594 423.992188 Z M 251.78125 427.632812 C 251.710938 427.632812 251.636719 427.621094 251.566406 427.589844 C 250.308594 427.046875 248.972656 426.453125 247.605469 425.8125 C 247.335938 425.6875 247.21875 425.367188 247.34375 425.097656 C 247.472656 424.824219 247.792969 424.707031 248.0625 424.832031 C 249.421875 425.464844 250.742188 426.058594 251.996094 426.597656 C 252.269531 426.714844 252.394531 427.03125 252.277344 427.308594 C 252.191406 427.511719 251.992188 427.632812 251.78125 427.632812 Z M 297.273438 427.695312 C 297.09375 427.695312 296.917969 427.605469 296.816406 427.445312 C 296.65625 427.195312 296.730469 426.859375 296.980469 426.699219 C 298.1875 425.921875 299.347656 425.082031 300.421875 424.191406 C 300.65625 424.003906 300.996094 424.035156 301.183594 424.265625 C 301.375 424.496094 301.339844 424.835938 301.113281 425.027344 C 300 425.941406 298.808594 426.808594 297.5625 427.609375 C 297.472656 427.664062 297.371094 427.695312 297.273438 427.695312 Z M 259.859375 430.71875 C 259.804688 430.71875 259.746094 430.707031 259.691406 430.691406 C 258.371094 430.257812 256.992188 429.765625 255.59375 429.230469 C 255.316406 429.121094 255.175781 428.808594 255.28125 428.53125 C 255.390625 428.253906 255.703125 428.113281 255.980469 428.21875 C 257.359375 428.75 258.722656 429.234375 260.027344 429.664062 C 260.3125 429.757812 260.464844 430.0625 260.375 430.34375 C 260.296875 430.574219 260.085938 430.71875 259.859375 430.71875 Z M 289.53125 431.515625 C 289.3125 431.515625 289.105469 431.378906 289.023438 431.160156 C 288.921875 430.878906 289.070312 430.566406 289.351562 430.464844 C 290.667969 429.992188 291.988281 429.429688 293.269531 428.796875 C 293.535156 428.664062 293.859375 428.773438 293.992188 429.042969 C 294.125 429.308594 294.015625 429.632812 293.746094 429.765625 C 292.425781 430.417969 291.070312 430.996094 289.714844 431.484375 C 289.65625 431.503906 289.59375 431.515625 289.53125 431.515625 Z M 268.222656 432.890625 C 268.191406 432.890625 268.15625 432.886719 268.125 432.882812 C 266.742188 432.625 265.308594 432.304688 263.867188 431.925781 C 263.582031 431.851562 263.40625 431.554688 263.484375 431.265625 C 263.558594 430.976562 263.855469 430.804688 264.144531 430.878906 C 265.558594 431.253906 266.964844 431.566406 268.320312 431.820312 C 268.613281 431.875 268.808594 432.15625 268.753906 432.449219 C 268.707031 432.710938 268.476562 432.890625 268.222656 432.890625 Z M 281.128906 433.46875 C 280.859375 433.46875 280.625 433.265625 280.59375 432.988281 C 280.558594 432.691406 280.773438 432.421875 281.070312 432.390625 C 282.484375 432.234375 283.894531 431.992188 285.269531 431.671875 C 285.558594 431.605469 285.847656 431.785156 285.914062 432.074219 C 285.984375 432.367188 285.800781 432.65625 285.511719 432.726562 C 284.101562 433.054688 282.648438 433.300781 281.191406 433.464844 C 281.167969 433.46875 281.148438 433.46875 281.128906 433.46875 Z M 276.738281 433.710938 C 275.339844 433.710938 273.898438 433.640625 272.449219 433.5 C 272.152344 433.46875 271.933594 433.203125 271.964844 432.90625 C 271.992188 432.609375 272.257812 432.390625 272.554688 432.421875 C 273.96875 432.5625 275.375 432.628906 276.738281 432.628906 L 276.816406 432.628906 C 277.113281 432.628906 277.355469 432.871094 277.355469 433.167969 C 277.355469 433.46875 277.113281 433.710938 276.816406 433.710938 L 276.738281 433.710938 " fill-opacity="1" fill-rule="nonzero"/><path fill="#1e015b" d="M 197.835938 261.917969 C 197.828125 261.917969 197.820312 261.917969 197.8125 261.917969 L 195.023438 261.796875 C 194.722656 261.78125 194.492188 261.53125 194.507812 261.234375 C 194.519531 260.933594 194.777344 260.703125 195.070312 260.714844 L 197.859375 260.839844 C 198.15625 260.851562 198.386719 261.105469 198.375 261.402344 C 198.363281 261.695312 198.121094 261.917969 197.835938 261.917969 " fill-opacity="1" fill-rule="nonzero"/><path fill="#1e015b" d="M 191.339844 261.632812 C 191.332031 261.632812 191.324219 261.632812 191.316406 261.632812 L 188.527344 261.511719 C 188.230469 261.5 187.996094 261.246094 188.011719 260.949219 C 188.023438 260.648438 188.28125 260.417969 188.574219 260.429688 L 191.363281 260.554688 C 191.660156 260.566406 191.890625 260.820312 191.878906 261.117188 C 191.867188 261.40625 191.628906 261.632812 191.339844 261.632812 " fill-opacity="1" fill-rule="nonzero"/><path fill="#1e015b" d="M 193.273438 259.859375 C 193.265625 259.859375 193.257812 259.859375 193.25 259.855469 C 192.953125 259.84375 192.722656 259.59375 192.734375 259.292969 L 192.855469 256.496094 C 192.867188 256.199219 193.121094 255.96875 193.417969 255.980469 C 193.71875 255.992188 193.949219 256.246094 193.9375 256.542969 L 193.8125 259.339844 C 193.800781 259.628906 193.5625 259.859375 193.273438 259.859375 " fill-opacity="1" fill-rule="nonzero"/><path fill="#1e015b" d="M 192.992188 266.371094 C 192.984375 266.371094 192.972656 266.371094 192.964844 266.371094 C 192.667969 266.359375 192.4375 266.105469 192.449219 265.808594 L 192.570312 263.011719 C 192.585938 262.710938 192.839844 262.480469 193.136719 262.492188 C 193.433594 262.507812 193.664062 262.757812 193.652344 263.058594 L 193.53125 265.855469 C 193.519531 266.144531 193.277344 266.371094 192.992188 266.371094 " fill-opacity="1" fill-rule="nonzero"/><path fill="#f4f6ff" d="M 422.253906 230.050781 C 419.644531 230.050781 417.523438 232.179688 417.523438 234.796875 C 417.523438 237.414062 419.644531 239.542969 422.253906 239.542969 C 424.863281 239.542969 426.984375 237.414062 426.984375 234.796875 C 426.984375 232.179688 424.863281 230.050781 422.253906 230.050781 Z M 422.253906 240.625 C 419.046875 240.625 416.441406 238.007812 416.441406 234.796875 C 416.441406 231.582031 419.046875 228.96875 422.253906 228.96875 C 425.457031 228.96875 428.066406 231.582031 428.066406 234.796875 C 428.066406 238.007812 425.457031 240.625 422.253906 240.625 " fill-opacity="1" fill-rule="nonzero"/><path fill="#f1b2ac" d="M 364.277344 223.710938 C 357.058594 224.324219 350.710938 218.960938 350.09375 211.726562 C 349.480469 204.488281 354.832031 198.121094 362.046875 197.503906 C 369.261719 196.890625 375.609375 202.253906 376.226562 209.488281 C 376.839844 216.726562 371.488281 223.09375 364.277344 223.710938 Z M 387.820312 202.910156 C 387.75 202.605469 387.480469 202.394531 387.171875 202.394531 L 382.695312 202.410156 C 382.433594 202.414062 382.199219 202.253906 382.09375 202.015625 C 381.734375 201.210938 381.324219 200.4375 380.875 199.699219 C 380.738281 199.472656 380.742188 199.195312 380.890625 198.980469 L 383.414062 195.273438 C 383.589844 195.015625 383.5625 194.675781 383.351562 194.445312 L 380.683594 191.566406 C 380.46875 191.339844 380.132812 191.289062 379.867188 191.445312 L 375.992188 193.707031 C 375.765625 193.839844 375.488281 193.824219 375.277344 193.667969 C 374.570312 193.160156 373.832031 192.699219 373.066406 192.28125 C 372.835938 192.15625 372.699219 191.914062 372.71875 191.652344 L 373.0625 187.167969 C 373.082031 186.859375 372.890625 186.574219 372.59375 186.480469 L 368.847656 185.328125 C 368.554688 185.234375 368.234375 185.363281 368.082031 185.632812 L 365.859375 189.527344 C 365.730469 189.753906 365.480469 189.878906 365.21875 189.855469 C 364.359375 189.769531 363.488281 189.738281 362.609375 189.761719 C 362.347656 189.769531 362.105469 189.628906 361.992188 189.390625 L 360.054688 185.339844 C 359.921875 185.0625 359.613281 184.910156 359.3125 184.980469 L 355.492188 185.859375 C 355.191406 185.929688 354.976562 186.199219 354.976562 186.507812 L 354.996094 191.003906 C 354.996094 191.265625 354.839844 191.5 354.601562 191.609375 C 353.800781 191.96875 353.03125 192.378906 352.289062 192.832031 C 352.070312 192.96875 351.789062 192.964844 351.574219 192.816406 L 347.882812 190.285156 C 347.628906 190.109375 347.285156 190.132812 347.058594 190.34375 L 344.1875 193.027344 C 343.960938 193.238281 343.914062 193.578125 344.066406 193.84375 L 346.320312 197.730469 C 346.453125 197.957031 346.4375 198.238281 346.285156 198.449219 C 345.777344 199.15625 345.3125 199.902344 344.898438 200.667969 C 344.777344 200.898438 344.53125 201.035156 344.269531 201.015625 L 339.804688 200.671875 C 339.496094 200.648438 339.210938 200.84375 339.121094 201.140625 L 337.96875 204.902344 C 337.878906 205.199219 338.003906 205.519531 338.273438 205.671875 L 342.15625 207.902344 C 342.382812 208.03125 342.507812 208.28125 342.480469 208.539062 C 342.394531 209.40625 342.363281 210.28125 342.390625 211.164062 C 342.398438 211.425781 342.257812 211.664062 342.019531 211.78125 L 337.984375 213.726562 C 337.703125 213.859375 337.554688 214.167969 337.625 214.472656 L 338.5 218.304688 C 338.570312 218.609375 338.839844 218.824219 339.148438 218.820312 L 343.625 218.804688 C 343.886719 218.800781 344.121094 218.960938 344.226562 219.199219 C 344.589844 220.003906 344.996094 220.777344 345.445312 221.515625 C 345.585938 221.738281 345.582031 222.019531 345.433594 222.234375 L 342.90625 225.941406 C 342.734375 226.199219 342.757812 226.539062 342.96875 226.769531 L 345.636719 229.648438 C 345.851562 229.875 346.1875 229.925781 346.457031 229.769531 L 350.328125 227.507812 C 350.554688 227.375 350.832031 227.390625 351.046875 227.542969 C 351.75 228.054688 352.492188 228.515625 353.253906 228.933594 C 353.484375 229.058594 353.621094 229.300781 353.601562 229.566406 L 353.257812 234.046875 C 353.238281 234.355469 353.429688 234.640625 353.726562 234.734375 L 357.472656 235.886719 C 357.769531 235.980469 358.085938 235.851562 358.242188 235.582031 L 360.464844 231.6875 C 360.59375 231.460938 360.839844 231.335938 361.101562 231.359375 C 361.960938 231.445312 362.832031 231.476562 363.710938 231.453125 C 363.972656 231.445312 364.214844 231.585938 364.328125 231.820312 L 366.265625 235.875 C 366.398438 236.15625 366.707031 236.304688 367.007812 236.234375 L 370.828125 235.355469 C 371.128906 235.285156 371.34375 235.015625 371.34375 234.707031 L 371.324219 230.210938 C 371.324219 229.949219 371.480469 229.714844 371.71875 229.609375 C 372.519531 229.246094 373.292969 228.835938 374.03125 228.382812 C 374.25 228.246094 374.53125 228.25 374.746094 228.398438 L 378.4375 230.933594 C 378.691406 231.105469 379.039062 231.082031 379.261719 230.871094 L 382.132812 228.1875 C 382.359375 227.976562 382.410156 227.640625 382.253906 227.371094 L 380 223.484375 C 379.867188 223.257812 379.882812 222.976562 380.035156 222.765625 C 380.542969 222.058594 381.007812 221.3125 381.421875 220.546875 C 381.546875 220.316406 381.792969 220.179688 382.050781 220.199219 L 386.515625 220.542969 C 386.828125 220.566406 387.109375 220.371094 387.199219 220.074219 L 388.351562 216.3125 C 388.441406 216.015625 388.316406 215.699219 388.046875 215.542969 L 384.164062 213.3125 C 383.9375 213.183594 383.816406 212.933594 383.839844 212.675781 C 383.925781 211.808594 383.957031 210.933594 383.929688 210.050781 C 383.921875 209.789062 384.066406 209.546875 384.300781 209.433594 L 388.339844 207.488281 C 388.617188 207.355469 388.765625 207.046875 388.699219 206.742188 L 387.820312 202.910156 " fill-opacity="1" fill-rule="nonzero"/><path fill="#f1b2ac" d="M 406.941406 201.121094 C 401.625 202.191406 396.449219 198.738281 395.382812 193.402344 C 394.3125 188.070312 397.757812 182.878906 403.074219 181.8125 C 408.390625 180.738281 413.566406 184.195312 414.636719 189.523438 C 415.703125 194.855469 412.257812 200.046875 406.941406 201.121094 Z M 422.707031 183.644531 C 422.632812 183.425781 422.410156 183.289062 422.183594 183.316406 L 418.851562 183.707031 C 418.65625 183.730469 418.46875 183.636719 418.371094 183.46875 C 418.035156 182.898438 417.667969 182.355469 417.269531 181.84375 C 417.148438 181.691406 417.125 181.480469 417.21875 181.308594 L 418.785156 178.335938 C 418.890625 178.132812 418.84375 177.878906 418.667969 177.726562 L 416.441406 175.8125 C 416.261719 175.660156 416.003906 175.652344 415.820312 175.789062 L 413.132812 177.800781 C 412.976562 177.917969 412.765625 177.929688 412.59375 177.835938 C 412.023438 177.515625 411.4375 177.234375 410.832031 176.988281 C 410.652344 176.914062 410.527344 176.742188 410.523438 176.550781 L 410.398438 173.183594 C 410.390625 172.953125 410.222656 172.757812 409.992188 172.710938 L 407.109375 172.171875 C 406.882812 172.128906 406.652344 172.25 406.5625 172.464844 L 405.238281 175.550781 C 405.160156 175.730469 404.984375 175.84375 404.789062 175.847656 C 404.140625 175.855469 403.492188 175.910156 402.839844 176.003906 C 402.648438 176.03125 402.457031 175.945312 402.351562 175.777344 L 400.566406 172.929688 C 400.445312 172.730469 400.203125 172.644531 399.984375 172.722656 L 397.214844 173.699219 C 396.996094 173.777344 396.859375 173.996094 396.886719 174.230469 L 397.277344 177.570312 C 397.300781 177.765625 397.207031 177.953125 397.039062 178.054688 C 396.472656 178.390625 395.929688 178.757812 395.421875 179.160156 C 395.269531 179.28125 395.058594 179.300781 394.886719 179.210938 L 391.925781 177.640625 C 391.722656 177.53125 391.46875 177.578125 391.316406 177.753906 L 389.410156 179.992188 C 389.257812 180.167969 389.25 180.425781 389.390625 180.609375 L 391.394531 183.3125 C 391.507812 183.46875 391.519531 183.679688 391.425781 183.847656 C 391.109375 184.421875 390.824219 185.011719 390.582031 185.617188 C 390.507812 185.800781 390.339844 185.921875 390.144531 185.929688 L 386.789062 186.054688 C 386.558594 186.0625 386.363281 186.230469 386.324219 186.460938 L 385.785156 189.355469 C 385.742188 189.582031 385.859375 189.8125 386.074219 189.902344 L 389.148438 191.234375 C 389.328125 191.3125 389.445312 191.484375 389.445312 191.683594 C 389.457031 192.332031 389.507812 192.984375 389.601562 193.640625 C 389.628906 193.832031 389.542969 194.023438 389.378906 194.128906 L 386.535156 195.917969 C 386.339844 196.042969 386.257812 196.285156 386.332031 196.503906 L 387.308594 199.285156 C 387.386719 199.503906 387.605469 199.640625 387.832031 199.613281 L 391.164062 199.21875 C 391.359375 199.195312 391.542969 199.292969 391.644531 199.460938 C 391.980469 200.027344 392.351562 200.570312 392.75 201.085938 C 392.867188 201.238281 392.890625 201.445312 392.800781 201.617188 L 391.230469 204.589844 C 391.125 204.796875 391.171875 205.050781 391.347656 205.203125 L 393.578125 207.117188 C 393.753906 207.269531 394.007812 207.277344 394.195312 207.136719 L 396.886719 205.125 C 397.042969 205.007812 397.25 205 397.421875 205.09375 C 397.992188 205.414062 398.582031 205.699219 399.183594 205.941406 C 399.363281 206.015625 399.484375 206.183594 399.492188 206.382812 L 399.617188 209.746094 C 399.625 209.976562 399.792969 210.171875 400.023438 210.214844 L 402.910156 210.757812 C 403.136719 210.800781 403.359375 210.679688 403.453125 210.464844 L 404.777344 207.378906 C 404.855469 207.199219 405.03125 207.082031 405.226562 207.082031 C 405.875 207.070312 406.523438 207.019531 407.175781 206.925781 C 407.367188 206.898438 407.5625 206.984375 407.667969 207.152344 L 409.449219 210 C 409.570312 210.199219 409.8125 210.28125 410.035156 210.207031 L 412.800781 209.226562 C 413.019531 209.148438 413.15625 208.929688 413.128906 208.703125 L 412.738281 205.359375 C 412.714844 205.164062 412.8125 204.976562 412.980469 204.875 C 413.546875 204.539062 414.085938 204.167969 414.59375 203.769531 C 414.746094 203.648438 414.957031 203.625 415.128906 203.71875 L 418.089844 205.289062 C 418.292969 205.398438 418.546875 205.351562 418.695312 205.175781 L 420.609375 202.9375 C 420.757812 202.761719 420.769531 202.503906 420.628906 202.316406 L 418.625 199.617188 C 418.507812 199.460938 418.492188 199.25 418.589844 199.078125 C 418.910156 198.507812 419.191406 197.917969 419.433594 197.3125 C 419.507812 197.132812 419.675781 197.007812 419.871094 197 L 423.226562 196.875 C 423.457031 196.867188 423.652344 196.699219 423.691406 196.472656 L 424.234375 193.574219 C 424.277344 193.34375 424.15625 193.117188 423.941406 193.027344 L 420.863281 191.695312 C 420.683594 191.621094 420.574219 191.441406 420.570312 191.246094 C 420.5625 190.597656 420.507812 189.945312 420.414062 189.292969 C 420.386719 189.097656 420.472656 188.902344 420.636719 188.800781 L 423.480469 187.007812 C 423.675781 186.886719 423.761719 186.644531 423.683594 186.425781 L 422.707031 183.644531 " fill-opacity="1" fill-rule="nonzero"/><g clip-path="url(#f382b14ca7)"><path fill="#ea5092" d="M 60.015625 243.792969 C 60.023438 245.855469 61.679688 247.507812 63.734375 247.511719 C 65.796875 247.507812 67.445312 245.851562 67.453125 243.792969 C 67.445312 241.949219 66.117188 240.429688 64.367188 240.132812 L 64.367188 138.726562 L 108.242188 94.851562 L 231.101562 94.242188 C 231.269531 95.1875 231.796875 96.027344 232.59375 96.609375 C 233.242188 97.074219 233.984375 97.3125 234.78125 97.3125 C 235.714844 97.300781 236.566406 96.96875 237.257812 96.347656 C 238.046875 95.625 238.484375 94.640625 238.484375 93.578125 C 238.472656 92.375 237.90625 91.289062 236.9375 90.578125 C 236.289062 90.113281 235.546875 89.875 234.75 89.875 C 233.816406 89.886719 232.964844 90.21875 232.273438 90.839844 C 231.640625 91.414062 231.234375 92.15625 231.097656 92.984375 L 107.71875 93.59375 L 63.101562 138.207031 L 63.101562 240.132812 C 61.347656 240.429688 60.023438 241.949219 60.015625 243.792969 M 117.464844 114.523438 L 110.441406 107.503906 L 96.394531 121.550781 L 110.441406 135.597656 L 124.492188 121.550781 Z M 110.886719 106.160156 L 126.269531 121.542969 L 110.4375 137.375 L 94.605469 121.542969 L 110.4375 105.710938 Z M 170.097656 112.765625 L 188.445312 112.765625 L 180.132812 121.078125 L 161.785156 121.078125 Z M 191.835938 112.765625 L 210.183594 112.765625 L 201.871094 121.078125 L 183.523438 121.078125 Z M 148.359375 112.765625 L 166.707031 112.765625 L 158.394531 121.078125 L 140.046875 121.078125 Z M 224.277344 129.046875 C 226.335938 129.042969 227.988281 127.386719 227.992188 125.328125 C 227.988281 123.265625 226.332031 121.617188 224.277344 121.609375 C 222.429688 121.617188 220.910156 122.945312 220.613281 124.695312 L 137.40625 124.695312 L 113.773438 148.332031 L 70.859375 148.332031 L 70.859375 322.476562 C 69.105469 322.78125 67.78125 324.292969 67.773438 326.140625 C 67.78125 328.203125 69.4375 329.851562 71.492188 329.859375 C 73.554688 329.851562 75.207031 328.195312 75.210938 326.140625 C 75.207031 324.292969 73.875 322.777344 72.125 322.476562 L 72.125 149.59375 L 114.300781 149.59375 L 137.933594 125.960938 L 220.613281 125.960938 C 220.910156 127.710938 222.429688 129.035156 224.277344 129.046875 Z M 224.277344 129.046875 " fill-opacity="1" fill-rule="nonzero"/></g><g clip-path="url(#f893b7b0a0)"><path fill="#ea5092" d="M 539.984375 337.648438 C 539.976562 335.589844 538.320312 333.9375 536.265625 333.929688 C 534.203125 333.9375 532.554688 335.59375 532.546875 337.648438 C 532.554688 339.496094 533.882812 341.011719 535.632812 341.3125 L 535.632812 442.714844 L 491.757812 486.59375 L 368.898438 487.203125 C 368.730469 486.253906 368.203125 485.417969 367.40625 484.835938 C 366.757812 484.371094 366.015625 484.132812 365.21875 484.132812 C 364.285156 484.144531 363.433594 484.476562 362.742188 485.097656 C 361.953125 485.816406 361.515625 486.804688 361.515625 487.867188 C 361.527344 489.070312 362.09375 490.15625 363.0625 490.863281 C 363.710938 491.332031 364.453125 491.570312 365.25 491.570312 C 366.183594 491.558594 367.035156 491.226562 367.726562 490.605469 C 368.359375 490.027344 368.765625 489.285156 368.902344 488.460938 L 492.28125 487.851562 L 536.898438 443.234375 L 536.898438 341.3125 C 538.652344 341.011719 539.976562 339.496094 539.984375 337.648438 M 482.535156 466.921875 L 489.558594 473.941406 L 503.605469 459.894531 L 489.558594 445.847656 L 475.507812 459.894531 Z M 489.113281 475.28125 L 473.730469 459.898438 L 489.5625 444.066406 L 505.394531 459.898438 L 489.5625 475.730469 Z M 429.902344 468.675781 L 411.554688 468.675781 L 419.867188 460.363281 L 438.214844 460.363281 Z M 408.164062 468.675781 L 389.816406 468.675781 L 398.128906 460.363281 L 416.476562 460.363281 Z M 451.640625 468.675781 L 433.292969 468.675781 L 441.605469 460.363281 L 459.953125 460.363281 Z M 375.722656 452.394531 C 373.664062 452.402344 372.011719 454.058594 372.007812 456.113281 C 372.011719 458.175781 373.667969 459.828125 375.722656 459.832031 C 377.570312 459.828125 379.089844 458.496094 379.386719 456.746094 L 462.59375 456.746094 L 486.226562 433.113281 L 529.140625 433.113281 L 529.140625 258.964844 C 530.894531 258.660156 532.21875 257.148438 532.226562 255.304688 C 532.21875 253.242188 530.5625 251.589844 528.507812 251.585938 C 526.445312 251.589844 524.792969 253.246094 524.789062 255.304688 C 524.792969 257.148438 526.125 258.667969 527.875 258.964844 L 527.875 431.847656 L 485.699219 431.847656 L 462.066406 455.484375 L 379.386719 455.484375 C 379.089844 453.730469 377.570312 452.40625 375.722656 452.394531 Z M 375.722656 452.394531 " fill-opacity="1" fill-rule="nonzero"/></g></svg>